<svg fill="none" height="107" viewBox="0 0 242 107" width="242" xmlns="http://www.w3.org/2000/svg"><g fill="#000"><path d="m0 .969727h16.65c2.2 0 4.21.249993 6.06.739993 1.84.49 3.42 1.19001 4.73 2.08001s2.34 1.96 3.07 3.21 1.1 2.62 1.1 4.12997c0 1.13-.12 2.14-.36 3.03s-.65 1.72-1.22 2.48c-.58.76-1.35 1.48-2.32 2.17-.97.68-2.19 1.37-3.65 2.06v.12c1.46.24 2.79.64 3.99 1.2s2.22 1.28 3.06 2.15 1.49 1.88 1.94 3.01c.46 1.14.69 2.4.69 3.78 0 1.57-.34 3.03-1.03 4.39-.68 1.37-1.65 2.55-2.91 3.56s-2.78 1.8-4.55 2.37c-1.78.57-3.77.86-5.97.86h-19.28zm6.94 18.609973h8.84c1.39 0 2.62-.2 3.71-.59 1.09-.4 2-.94 2.75-1.65.74-.7 1.31-1.53 1.69-2.48.39-.95.58-1.99.58-3.12 0-1.21-.23-2.30997-.68-3.28997-.45-.99-1.17-1.84-2.14-2.54s-2.2-1.24-3.68-1.62-3.26-.56001-5.34-.56001h-5.73zm0 19.71h7.51c2.01 0 3.77-.19 5.25-.58s2.71-.93 3.68-1.62 1.69-1.53 2.15-2.51.7-2.05.7-3.22c0-1.31-.21-2.53-.62-3.65-.42-1.13-1.1-2.1-2.05-2.92s-2.19-1.47-3.71-1.94c-1.52-.48-3.39-.71-5.61-.71h-7.3z"/><path d="m70.73.969727v2.669993h-21.78v14.77998h14.57v2.67h-14.57v18.55h21.79v2.67h-28.74v-41.339973z"/><path d="m98.63.0195312 19.47 42.2899688h-7.07l-6.32-13.8h-17.71l-6.53 13.8h-3.47l19.92-42.2899688zm-10.42 25.8199688h15.23l-7.51-16.34997z"/><path d="m126 .969727h14.31c2.49 0 4.67.270003 6.54.800003 1.87.54 3.43 1.27999 4.67 2.23999 1.25.96 2.18 2.1 2.82 3.41.63 1.32.95 2.75998.95 4.31998 0 1.29-.24 2.49-.73 3.61s-1.17 2.13-2.06 3.03-1.96 1.68-3.21 2.35c-1.25.66-2.62 1.17-4.12 1.53l15.05 20.06h-8.04l-14.36-19.44h-4.87v19.44h-6.94v-41.349973zm6.95 19.829973h4.01c1.56 0 3-.21 4.32-.62 1.32-.42 2.46-1 3.43-1.76s1.73-1.69 2.27-2.78.82-2.31.82-3.65c0-1.23-.22-2.35997-.65-3.39997-.44-1.04-1.04-1.93001-1.81-2.67001s-1.69-1.31999-2.76-1.73999-2.23-.62001-3.5-.62001h-6.12v17.23998z"/><path d="m168.59.969727h13.74c4.26 0 7.91.400003 10.97 1.190003s5.61 2.05999 7.64 3.79999c2.34 1.98 4.09 4.25998 5.27 6.83998s1.77 5.41 1.77 8.47c0 2.91-.53 5.64-1.59 8.19s-2.6 4.78-4.63 6.69-4.53 3.41-7.51 4.51-6.39 1.65-10.22 1.65h-15.44zm6.95 38.319973h7.36c2.33 0 4.53-.39 6.59-1.16s3.85-1.91 5.39-3.43c1.53-1.51 2.74-3.38 3.62-5.61s1.32-4.79 1.32-7.7c0-2.53-.42-4.86-1.25-6.99s-1.99-3.96-3.49-5.48997c-1.5-1.53-3.28-2.73-5.34-3.59-2.07-.86-4.33-1.29001-6.78-1.29001h-7.42z"/><path d="m15.13 103.65c1.03 0 2.04-.14 3.04-.41 1-.28 1.89-.69 2.67-1.25.78-.55 1.41-1.23 1.89-2.0302.47-.8.71-1.73.71-2.77 0-1.27-.33-2.39-.98-3.37-.66-.98-1.51-1.89-2.57-2.72s-2.27-1.61-3.63-2.33c-1.37-.72-2.75-1.45-4.17-2.18-1.41-.73-2.79999-1.5-4.16999-2.3s-2.58001-1.69-3.64001-2.67-1.90998-2.08-2.56998-3.3c-.65-1.22-.980009-2.62-.980009-4.2s.299989-3.05.889989-4.41 1.46001-2.53 2.61001-3.52 2.56001-1.77 4.23001-2.33c1.66998-.56 3.58998-.85 5.77998-.85 3.91 0 7 .82 9.27 2.46 2.26 1.64 3.9 4.02 4.91 7.12l-3.56 1.63c-.41-1.27-.95-2.42-1.59-3.47-.65-1.05-1.42-1.95-2.32-2.7s-1.93-1.33-3.1-1.74-2.48-.61-3.95-.61c-1.31 0-2.45.18-3.43.55s-1.78999.84-2.42999 1.42-1.13001 1.25-1.45001 1.99c-.33.74-.48999 1.5-.48999 2.27 0 1.09.34001 2.08 1.01001 2.98s1.55998 1.76 2.63998 2.57c1.09.81 2.33 1.59 3.74 2.33s2.83 1.5 4.29 2.27c1.45.77 2.88 1.57 4.29 2.41 1.4.83 2.65 1.74 3.74 2.73s1.97 2.07 2.64 3.25 1.01 2.49 1.01 3.93c0 1.64-.31 3.18-.93 4.62-.62 1.4302-1.56 2.6902-2.81 3.7702-1.24 1.08-2.79 1.93-4.64 2.55s-4 .93-6.45.93c-1.98 0-3.75-.22-5.30999-.65-1.56-.43-2.93999-1.07-4.13999-1.9s-2.22-1.85-3.07-3.06c-.85-1.2002-1.55002-2.5702-2.11002-4.0902l3.74002-1.54c.43 1.35 1.02 2.55 1.75 3.62s1.58998 1.9802 2.56998 2.7202 2.07 1.31 3.26 1.69c1.19.4 2.47.59 3.81.59z"/><path d="m66.2791 63.9697v2.67h-21.7901v14.78h14.5701v2.67h-14.5701v18.5503h21.7901v2.67h-28.74v-41.3403z"/><path d="m94.1691 63.0195 19.4699 42.2905h-7.06l-6.32-13.8005h-17.7199l-6.53 13.8005h-3.47l19.92-42.2905zm-10.42 25.82h15.23l-7.51-16.35z"/><path d="m133.679 103.65c1.03 0 2.04-.14 3.04-.41 1-.28 1.89-.69 2.67-1.25.78-.55 1.41-1.23 1.89-2.0302.47-.8.71-1.73.71-2.77 0-1.27-.32-2.39-.98-3.37-.65-.98-1.51-1.89-2.57-2.72s-2.27-1.61-3.64-2.33-2.76-1.45-4.17-2.18c-1.42-.73-2.8-1.5-4.17-2.3-1.36-.8-2.58-1.69-3.64-2.67s-1.91-2.08-2.57-3.3c-.65-1.22-.98-2.62-.98-4.2s.3-3.05.89-4.41 1.47-2.53 2.61-3.52c1.15-.99 2.56-1.77 4.23-2.33s3.6-.85 5.78-.85c3.92 0 7 .82 9.27 2.46s3.9 4.02 4.91 7.12l-3.56 1.63c-.41-1.27-.95-2.42-1.59-3.47s-1.42-1.95-2.31-2.7c-.9-.75-1.94-1.33-3.1-1.74-1.17-.41-2.48-.61-3.95-.61-1.31 0-2.45.18-3.43.55s-1.79.84-2.43 1.42-1.13 1.25-1.46 1.99-.49 1.5-.49 2.27c0 1.09.34 2.08 1.01 2.98s1.55 1.76 2.64 2.57 2.33 1.59 3.74 2.33c1.4.74 2.83 1.5 4.29 2.27 1.45.77 2.88 1.57 4.29 2.41 1.4.83 2.65 1.74 3.74 2.73s1.97 2.07 2.65 3.25c.67 1.18 1.01 2.49 1.01 3.93 0 1.64-.31 3.18-.93 4.62-.62 1.4302-1.56 2.6902-2.81 3.7702-1.24 1.08-2.79 1.93-4.64 2.55s-4 .93-6.46.93c-1.98 0-3.75-.22-5.31-.65s-2.94-1.07-4.14-1.9-2.22-1.85-3.07-3.06c-.85-1.2002-1.55-2.5702-2.11-4.0902l3.74-1.54c.43 1.35 1.02 2.55 1.75 3.62s1.59 1.9802 2.57 2.7202 2.07 1.31 3.26 1.69c1.2.4 2.48.59 3.82.59z"/><path d="m177.329 106.29c-2.14 0-4.19-.26-6.14-.79-1.96-.52-3.78-1.26-5.46-2.21s-3.21-2.09-4.6-3.43-2.56-2.82-3.53-4.44-1.72-3.37-2.26-5.23c-.53-1.86-.8-3.8-.8-5.82 0-1.98.27-3.88.8-5.7.54-1.82 1.29-3.52 2.26-5.1s2.15-3.02 3.53-4.32c1.39-1.3 2.92-2.41 4.6-3.34s3.5-1.65 5.46-2.15 4-.76 6.14-.76 4.18.25 6.14.76c1.96.5 3.78 1.22 5.46 2.15s3.21 2.04 4.6 3.34c1.38 1.3 2.56 2.74 3.53 4.32s1.72 3.29 2.26 5.1c.53 1.82.8 3.72.8 5.7 0 2-.27 3.93-.8 5.8s-1.28 3.61-2.26 5.24c-.97 1.62-2.15 3.1-3.53 4.44-1.39 1.33-2.92 2.48-4.6 3.43s-3.5 1.69-5.46 2.21c-1.96.54-4.01.8-6.14.8zm0-2.07c2.35 0 4.44-.49 6.26-1.48s3.35-2.36 4.59-4.12 2.18-3.85 2.82-6.28c.64-2.42.97-5.07.97-7.94 0-2.83-.32-5.43-.97-7.79-.64-2.36-1.58-4.4-2.82-6.11s-2.77-3.04-4.59-3.99-3.91-1.42-6.26-1.42c-2.42 0-4.54.47-6.37 1.42s-3.36 2.28-4.59 3.99c-1.22 1.71-2.15 3.75-2.77 6.11s-.94 4.96-.94 7.79c0 2.87.31 5.52.94 7.94s1.55 4.52 2.77 6.28c1.23 1.76 2.76 3.14 4.59 4.12s3.95 1.48 6.37 1.48z"/><path d="m207.539 63.9697h3.89l27.1 30.22h.27v-30.22h3.06v42.3203h-1.6l-29.35-33.6303h-.24v32.6503h-3.12v-41.3403z"/></g></svg>