<svg fill="none" height="75" viewBox="0 0 209 75" width="209" xmlns="http://www.w3.org/2000/svg"><g fill="#000"><path d="m101.65.836914c-20.1999 0-36.4898 16.531386-36.4898 36.663686s16.2899 36.8273 36.4898 36.8273c20.199 0 36.489-16.5313 36.489-36.6636s-16.29-36.827386-36.489-36.827386zm25.901 36.663686c0 14.2399-11.566 26.0247-25.901 26.0247-14.1726 0-25.9014-11.6211-25.9014-26.0247s11.7288-25.861 25.9014-25.861c14.335 0 25.901 11.6211 25.901 25.861z"/><path d="m36.0008 74.0008h-36.0008v-32.2444l7.65627 3.2735c1.9548.8184 3.25803 2.7825 3.25803 5.074v12.9305h25.2494c5.5386 0 10.5884-4.2556 11.0771-9.8206.4887-5.7287-3.5837-10.8027-9.1223-11.6211-2.2806-.3274-4.7241-.491-7.3305-.6547-6.0273-.3274-13.032-.6547-19.5479-3.4372-6.84181-2.7825-11.2401-9.4933-11.2401-17.0224v-19.15028h32.9057c10.2627 0 19.2221 7.69283 20.1995 18.00448.4887 5.565-1.1403 10.8027-4.5612 14.8946 6.1902 4.2556 10.0998 11.6211 9.4482 19.805-.8145 11.2937-10.5885 19.9686-21.9914 19.9686zm-25.0865-61.7063v8.1839c0 2.9461 1.7919 5.7287 4.5611 6.8744 4.7241 1.9641 10.4256 2.2915 15.8013 2.6188 1.4661 0 2.9322.1637 4.3983.3274l1.7919-.9821c2.9322-1.4731 4.7241-4.5829 4.7241-8.0202 0-4.9103-4.0725-9.0022-8.9595-9.0022z"/><path d="m209 74.0012h-9.937c-1.303 0-2.444-.8184-2.77-1.9642l-6.353-16.5314h-32.905l-6.353 16.5314c-.489 1.1458-1.629 1.9642-2.77 1.9642h-10.1l28.508-72.50901h14.172zm-46.59-29.6256h21.992c.488 0 .814-.491.651-.9821l-11.728-30.2802-11.729 30.2802c0 .4911.326.9821.814.9821z"/><path d="m207.696 7.05727c0 3.27353-2.606 5.72873-5.702 5.72873-3.258 0-5.701-2.6189-5.701-5.72873 0-3.10987 2.606-5.7287 5.701-5.7287 3.258-.16368 5.702 2.45515 5.702 5.7287zm-5.702-4.41929c-2.443 0-4.398 1.96413-4.398 4.41929 0 2.45515 1.955 4.41923 4.398 4.41923 2.444 0 4.399-1.96408 4.399-4.41923 0-2.45516-1.955-4.41929-4.399-4.41929z"/><path d="m201.504 7.7124 1.303 1.80045h1.466l-1.466-1.80045h.163c.977-.16367 1.466-.6547 1.466-1.47309 0-.98206-.814-1.63677-2.118-1.63677h-2.443v4.91031h1.303v-1.80045zm-.326-1.96412h1.14c.489 0 .815.16368.815.49103 0 .16368-.163.49103-.815.49103h-1.14z"/></g></svg>