<svg fill="none" height="72" viewBox="0 0 255 72" width="255" xmlns="http://www.w3.org/2000/svg"><path d="m247.439 31.1204c-.001-3.4541-1.2-6.8008-3.392-9.47-2.192-2.6693-5.242-4.4958-8.63-5.1684-3.388-.6727-6.905-.1498-9.95 1.4795-3.046 1.6293-5.432 4.2642-6.753 7.4558-1.321 3.1915-1.494 6.7423-.491 10.0473 1.004 3.305 3.123 6.1598 5.995 8.0779 2.873 1.9181 6.322 2.7809 9.759 2.4413 3.437-.3395 6.651-1.8604 9.092-4.3034 1.389-1.385 2.49-3.0311 3.24-4.8435.75-1.8123 1.134-3.7551 1.13-5.7165zm7.15 0c.002 5.1084-1.768 10.0592-5.008 14.0089-3.24 3.9496-7.749 6.6538-12.759 7.6516s-10.211.2276-14.717-2.1794c-4.505-2.4071-8.037-6.3019-9.993-11.021-1.956-4.7192-2.215-9.9705-.733-14.8592 1.481-4.8888 4.613-9.1125 8.859-11.9514 4.247-2.83897 9.347-4.11752 14.431-3.61781s9.837 2.74681 13.45 6.35831c2.054 2.0471 3.683 4.4801 4.794 7.159 1.11 2.679 1.68 5.551 1.676 8.451zm-172.4398 10.55c-2.4417 2.443-5.655 3.9639-9.0923 4.3034-3.4373.3396-6.886-.5232-9.7586-2.4413-2.8725-1.9181-4.9911-4.7729-5.9948-8.0779s-.8304-6.8558.4903-10.0473c1.3208-3.1916 3.7073-5.8265 6.7529-7.4558 3.0457-1.6293 6.562-2.1522 9.95-1.4795 3.3879.6726 6.4378 2.4991 8.63 5.1684 2.1923 2.6692 3.3912 6.0159 3.3925 9.47.0041 1.9614-.38 3.9042-1.13 5.7166-.75 1.8123-1.8511 3.4584-3.24 4.8434zm5.05-26.17c-3.6128-3.6115-8.3662-5.8586-13.4501-6.35831s-10.1838.77884-14.4306 3.61781c-4.2469 2.8389-7.3781 7.0626-8.8599 11.9514-1.4818 4.8887-1.2227 10.14.7333 14.8591 1.9559 4.7192 5.4877 8.614 9.9935 11.0211 4.5057 2.407 9.7067 3.1772 14.7167 2.1794s9.519-3.702 12.7588-7.6516c3.2397-3.9497 5.0097-8.9005 5.0083-14.0089.0036-2.9-.5661-5.772-1.6765-8.451-1.1104-2.6789-2.7394-5.1119-4.7935-7.159zm96.7298 15.61c-.001-3.4541-1.2-6.8008-3.392-9.47-2.192-2.6693-5.242-4.4958-8.63-5.1684-3.388-.6727-6.905-.1498-9.95 1.4795-3.046 1.6293-5.432 4.2642-6.753 7.4558-1.321 3.1915-1.494 6.7423-.491 10.0473 1.004 3.305 3.123 6.1598 5.995 8.0779 2.873 1.9181 6.322 2.7809 9.759 2.4413 3.437-.3395 6.651-1.8604 9.092-4.3034 1.389-1.385 2.49-3.0311 3.24-4.8434.75-1.8124 1.134-3.7552 1.13-5.7166zm7.15 0c.002 5.1084-1.768 10.0592-5.008 14.0089-3.24 3.9496-7.749 6.6538-12.759 7.6516s-10.211.2276-14.717-2.1794c-4.505-2.4071-8.037-6.3019-9.993-11.0211-1.956-4.7191-2.215-9.9704-.733-14.8591 1.481-4.8888 4.613-9.1125 8.859-11.9514 4.247-2.83897 9.347-4.11752 14.431-3.61781s9.837 2.74681 13.45 6.35831c2.054 2.0471 3.683 4.4801 4.794 7.159 1.11 2.679 1.68 5.551 1.676 8.451zm-55.92 0-.07 1.52c-.402 3.8729-2.302 7.4352-5.294 9.9275-2.991 2.4922-6.838 3.717-10.72 3.4133s-7.492-2.112-10.06-5.0392c-2.567-2.9272-3.89-6.7416-3.685-10.63s1.92-7.543 4.781-10.1845c2.861-2.6414 6.64-4.0608 10.533-3.9553 3.892.1054 7.589 1.7273 10.303 4.5198 2.713 2.7925 4.228 6.5346 4.222 10.4284zm.69-15.61c-3.059-3.0491-6.945-5.134-11.178-5.9965-4.232-.8625-8.624-.46476-12.633 1.144-4.008 1.6087-7.457 4.3578-9.918 7.9068-2.4622 3.5491-3.8289 7.7422-3.9315 12.0602-.1026 4.3181 1.0636 8.5714 3.3545 12.2333 2.29 3.6619 5.604 6.5716 9.532 8.3688 3.927 1.7972 8.296 2.403 12.564 1.7424 4.269-.6606 8.25-2.5586 11.45-5.459v2.07c-.004 2.8935-.849 5.7235-2.432 8.1456s-3.836 4.332-6.485 5.4973c-2.648 1.1654-5.579 1.536-8.434 1.0668s-5.512-1.7581-7.649-3.7097c-.114-.1079-.262-.1728-.419-.1837-.157-.011-.313.0327-.441.1237l-4.23 4.18c-.105.1203-.163.2749-.163.435 0 .16.058.3146.163.435 3.132 2.9649 7.064 4.9478 11.309 5.7039 4.246.756 8.621.2521 12.583-1.4495 3.963-1.7017 7.341-4.5266 9.716-8.126 2.376-3.5995 3.646-7.8158 3.652-12.1284 0 0 .08-17.82.08-18.41.004-2.9-.566-5.772-1.676-8.451-1.111-2.6789-2.74-5.1119-4.794-7.159zm-97.8498 15.62c.0059-3.8885-1.5075-7.6254-4.2175-10.414-2.71-2.7885-6.4021-4.408-10.2892-4.5132-3.887-.1052-7.6614 1.3123-10.5182 3.9502-2.8568 2.638-4.57007 6.2876-4.77444 10.1707-.20438 3.8831 1.11631 7.6924 3.68044 10.6156 2.5641 2.9232 6.1688 4.7291 10.0454 5.0326 3.8766.3034 7.7184-.9196 10.7062-3.4083 2.9877-2.4886 4.885-6.046 5.2873-9.9136zm7.15 0c0 .6-.08 18.41-.08 18.41-.0021 4.3146-1.2689 8.5341-3.6437 12.1364s-5.7534 6.4295-9.718 8.132-8.3413 2.2055-12.5888 1.4468c-4.2474-.7586-8.1793-2.7456-11.30947-5.7152-.10548-.1204-.16364-.275-.16364-.435 0-.1601.05816-.3147.16364-.435l4.20997-4.21c.1282-.091.284-.1347.4408-.1237.1567.0109.3049.0758.4192.1837 2.1363 1.9516 4.7937 3.2405 7.649 3.7097s5.7854.0986 8.4339-1.0668c2.6486-1.1653 4.9014-3.0752 6.4845-5.4973s2.4282-5.2521 2.4326-8.1456v-2.05c-3.7469 3.4052-8.5503 5.4192-13.6054 5.7046-5.055.2854-10.0546-1.1752-14.161-4.137s-7.07015-7.245-8.39466-12.1317c-1.32451-4.8868-.929311-10.0804 1.11938-14.7105 2.04869-4.6301 5.62641-8.4154 10.13368-10.7218 4.5073-2.30638 9.6703-2.99364 14.624-1.94664 4.9536 1.04704 9.397 3.76464 12.5855 7.69764 3.1886 3.9329 4.9286 8.8423 4.9285 13.9054zm171.3698-23.94004c.09-.04168.169-.10263.232-.17848s.109-.16473.134-.26027c.025-.09555.028-.19541.01-.29244-.018-.09702-.058-.18881-.116-.26881l-3.13-4.92c-.043-.07537-.101-.14106-.17-.19294-.07-.05188-.149-.088841-.234-.108557-.084-.019716-.172-.021765-.257-.006021-.086.015745-.167.048948-.239.097518-4.967 3.27354-9.046 7.727-11.871 12.96214-2.825 5.2352-4.309 11.089-4.319 17.0379v20.36c0 .0918.019.1828.055.2673s.089.1609.155.2244c.066.0636.145.113.231.1454.086.0323.177.0469.269.0429h5.73c.09.0026.179-.0123.262-.0441.084-.0317.16-.0796.225-.1409s.117-.1348.154-.2163c.036-.0815.057-.1694.059-.2587v-20.31c-.004-4.7385 1.164-9.4044 3.401-13.5816 2.237-4.1773 5.473-7.73587 9.419-10.35844" fill="#231f20"/></svg>