<svg fill="none" height="71" viewBox="0 0 362 71" width="362" xmlns="http://www.w3.org/2000/svg"><path d="m167.51 45-14.37-22.37h-8.84v47.25h8.17v-33.75l14.78 22.14h.27l14.91-22.27v33.88h8.3v-47.25h-8.84zm71 4.83h23.69v-7.45h-23.66v-12.29h26.73v-7.42h-35v47.24h35.33v-7.42h-27.06v-12.69zm81.11-7.29c-9-2.16-11.2-3.78-11.2-7.43v-.11c0-3.1 2.84-5.6 7.7-5.6 4.32 0 8.57 1.69 12.82 4.86l4.45-6.28c-4.813-3.9677-10.883-6.0881-17.12-5.98-9.38 0-16.13 5.6-16.13 13.7v.13c0 8.71 5.67 11.68 15.73 14.1 8.77 2 10.66 3.85 10.66 7.23v.13c0 3.58-3.24 5.94-8.37 5.94-5.87 0-10.39-2.23-14.92-6.14l-5 5.94c5.405 4.9099 12.458 7.6084 19.76 7.56 9.92 0 16.87-5.27 16.87-14.11v-.13c-.04-7.83-5.23-11.41-15.22-13.84zm-308.62-19.87v8.5h11.47v22.48c0 6.27-3 9.24-7.49 9.24-4 0-6.75-2-9.52-5.53l-5.46 5.64c1.68822 2.4276 3.95459 4.3963 6.59441 5.7285 2.63981 1.3321 5.56989 1.9856 8.52559 1.9015 4.73 0 8.71-1.42 11.48-4.19s4.4-6.99 4.4-12.59v-31.18zm71.43.19-20.58 47.08h8.41l4.81-11.29h22.1l4.74 11.29h8.68l-20.59-47.08h-7.58zm-4.35 28.52 8-18.7 8.08 18.7zm274.64-51.38c-1.78 0-3.52.527841-5 1.51677-1.48.98894-2.634 2.39454-3.315 4.03908-.681 1.64453-.859 3.45413-.512 5.19995.347 1.7458 1.204 3.3495 2.463 4.6082 1.259 1.2586 2.862 2.1158 4.608 2.4631 1.746.3472 3.556.169 5.2-.5122 1.645-.6812 3.05-1.8347 4.039-3.3148.989-1.48 1.517-3.2201 1.517-5.0001-.013-2.3829-.966-4.66446-2.651-6.34945-1.685-1.684993-3.966-2.6374208-6.349-2.65055zm0 14.48c-1.074 0-2.124-.3181-3.018-.9141s-1.591-1.4433-2.004-2.435-.523-2.08342-.316-3.13757c.206-1.05415.721-2.02351 1.477-2.78587.757-.76237 1.723-1.28361 2.775-1.49801 1.053-.2144 2.146-.11236 3.14.29326.995.40561 1.847 1.09664 2.45 1.98596.602.88933.928 1.93714.936 3.01133.004.71738-.134 1.4285-.405 2.0925-.272.6641-.672 1.268-1.177 1.7771-.506.5091-1.106.9135-1.768 1.1898-.663.2764-1.373.4193-2.09.4206z" fill="#231f20"/></svg>