<svg fill="none" height="58" viewBox="0 0 271 58" width="271" xmlns="http://www.w3.org/2000/svg"><g fill="#000"><path d="m95.6105 33.22-1.61 4.53h-.1c-.4285-1.5199-.9393-3.0154-1.53-4.48l-8.67-21.73h-8.47v34.55h5.58v-21.24c0-1.31 0-2.89-.08-4.71 0-.92-.13-1.65-.15-2.22h.12c.2123 1.0128.476 2.0141.79 3l10.39 25.2h3.91l10.3095-25.46c.293-.8946.53-1.8063.71-2.73h.13c-.13 2.52-.25 4.81-.27 6.2v22h6v-34.59h-8.13z"/><path d="m124.06 21.3301h-5.83v24.76h5.83z"/><path d="m121.208 10.8097c-.926-.007-1.817.3525-2.48 1-.329.3112-.588.6887-.761 1.1076-.172.4189-.254.8696-.239 1.3224-.012.445.071.8875.243 1.2979.173.4104.431.7793.757 1.0821.675.6289 1.568.9698 2.49.95.925.0181 1.821-.3223 2.5-.95.328-.302.586-.6708.759-1.0814.172-.4106.255-.8535.241-1.2986.006-.4471-.08-.8906-.252-1.3033-.172-.4128-.426-.786-.748-1.0967-.333-.3276-.729-.5849-1.163-.7567-.435-.1718-.9-.2545-1.367-.2433"/><path d="m144.682 21.0804c-1.072-.228-2.165-.3453-3.26-.35-2.471-.0492-4.913.5398-7.09 1.71-2.002 1.1015-3.629 2.7766-4.67 4.81-1.1 2.206-1.649 4.6455-1.6 7.11-.028 2.2244.508 4.4195 1.56 6.38 1.004 1.8592 2.525 3.3875 4.38 4.4 1.953 1.0507 4.142 1.5843 6.36 1.55 2.436.072 4.849-.4933 7-1.64l.08-.05v-5.34l-.24.18c-.874.6278-1.834 1.1262-2.85 1.48-.894.3329-1.837.5154-2.79.54-1.007.0475-2.013-.1176-2.952-.4846s-1.79-.9276-2.498-1.6454c-1.407-1.6252-2.124-3.7345-2-5.88-.094-2.1951.657-4.3427 2.1-6 .695-.7451 1.543-1.3324 2.484-1.7223.942-.3898 1.957-.5732 2.976-.5377 2.009.0288 3.956.7057 5.55 1.93l.24.18v-5.7h-.08c-.851-.4343-1.761-.741-2.7-.91"/><path d="m163.871 20.9004c-1.415-.0042-2.785.4917-3.87 1.4-1.02.895-1.792 2.0387-2.24 3.32h-.07v-4.29h-5.82v24.77h5.82v-12.68c-.082-1.8636.429-3.7052 1.46-5.26.411-.6225.971-1.1319 1.63-1.4814.658-.3495 1.394-.5278 2.14-.5186.592.0098 1.181.0972 1.75.26.472.1208.921.3166 1.33.58l.24.18v-5.9h-.09c-.73-.263-1.504-.3819-2.28-.35"/><path d="m179.702 20.7305c-4.08 0-7.33 1.2-9.64 3.56s-3.48 5.63-3.48 9.71c-.083 1.6926.175 3.3846.759 4.9753.584 1.5908 1.482 3.0479 2.641 4.2847 1.209 1.1602 2.643 2.0619 4.212 2.6499 1.57.588 3.243.85 4.918.7701 1.738.0857 3.475-.1899 5.102-.8095 1.626-.6197 3.107-1.5698 4.348-2.7905 1.178-1.2964 2.088-2.8127 2.678-4.4619s.849-3.3987.762-5.1481c0-3.94-1.1-7.08-3.27-9.33s-5.22-3.41-9.06-3.41zm4.6 19.07c-.597.7032-1.35 1.2567-2.199 1.6162-.85.3595-1.771.5149-2.691.4538-.939.046-1.875-.1198-2.741-.485-.866-.3653-1.638-.9207-2.259-1.625-1.3-1.72-1.938-3.849-1.8-6-.14-2.1853.497-4.3495 1.8-6.11.613-.7162 1.383-1.2817 2.25-1.6528.867-.371 1.808-.5378 2.75-.4872.905-.0498 1.809.104 2.647.4502.837.3461 1.587.8757 2.193 1.5498 1.307 1.7751 1.928 3.9628 1.75 6.16 0 2.69-.56 4.76-1.66 6.13"/><path d="m204.949 31.5603c-1.252-.4187-2.43-1.033-3.49-1.82-.244-.2521-.433-.552-.555-.8807s-.175-.6792-.155-1.0293c-.006-.3435.073-.6832.228-.9898s.382-.5709.662-.7702c.734-.5105 1.617-.7605 2.51-.71 1.017.003 2.028.158 3 .46.92.2625 1.796.6602 2.6 1.18l.25.2v-5.39h-.09c-.856-.3361-1.744-.584-2.65-.74-.956-.1877-1.926-.2882-2.9-.3-2.452-.1038-4.864.6415-6.83 2.11-.846.6419-1.528 1.4748-1.99 2.4307-.463.9559-.692 2.0077-.67 3.0693-.022 1.0515.172 2.0963.57 3.07.396.8952.999 1.6835 1.76 2.3 1.101.8259 2.308 1.4987 3.59 2 1.027.402 2.029.8662 3 1.39.505.2684.95.6357 1.31 1.08.257.4203.382.9079.36 1.4 0 1.67-1.25 2.47-3.81 2.47-1.101-.0266-2.191-.2257-3.23-.59-1.18-.3875-2.293-.9542-3.3-1.68l-.24-.18v5.66h.09c1.002.4493 2.052.7847 3.13 1 1.098.2375 2.217.3648 3.34.38 2.574.135 5.118-.6129 7.21-2.12.86-.66 1.551-1.5143 2.016-2.4929.466-.9786.694-2.0537.664-3.1371.044-1.5434-.467-3.0514-1.44-4.25-1.364-1.4192-3.048-2.4922-4.91-3.13"/><path d="m226.999 20.7297c-4.08 0-7.33 1.2-9.64 3.56s-3.48 5.63-3.48 9.71c-.084 1.6927.173 3.385.758 4.976.584 1.5909 1.482 3.0479 2.642 4.284 1.208 1.16 2.639 2.0615 4.207 2.6496 1.569.588 3.24.8502 4.913.7704 1.738.0858 3.476-.1898 5.102-.8095 1.627-.6196 3.107-1.5698 4.348-2.7905 1.186-1.2944 2.104-2.8109 2.702-4.462.597-1.6511.861-3.4041.778-5.158 0-3.94-1.1-7.08-3.27-9.33s-5.22-3.41-9.06-3.41zm4.6 19.07c-.597.7032-1.35 1.2568-2.199 1.6162-.849.3595-1.771.515-2.691.4538-.939.046-1.875-.1197-2.741-.485-.865-.3652-1.637-.9206-2.259-1.625-1.299-1.7199-1.938-3.849-1.8-6-.14-2.1852.498-4.3495 1.8-6.11.613-.7162 1.383-1.2816 2.25-1.6527s1.808-.5378 2.75-.4873c.905-.0498 1.809.1041 2.647.4502s1.587.8757 2.193 1.5498c1.291 1.7457 1.918 3.8939 1.77 6.06 0 2.69-.56 4.76-1.66 6.13"/><path d="m270.361 26.0797v-4.75h-5.9v-7.39l-.2.07-5.54 1.69h-.1v5.6h-8.75v-3.09c-.075-1.1845.28-2.3562 1-3.3.339-.3732.758-.6657 1.225-.8561.467-.1903.971-.2736 1.475-.2439.887.0119 1.763.2094 2.57.58l.22.1v-4.99998h-.1c-1.071-.35032-2.194-.51601-3.32-.49-1.617-.0224-3.212.36279-4.64 1.11998-1.346.7245-2.453 1.8217-3.19 3.16-.762 1.4187-1.144 3.0101-1.11 4.62v3.43h-4.11v4.75h4.11v20h5.9v-20h8.75v12.72c0 5.24 2.47 7.89 7.34 7.89.84-.0044 1.678-.0949 2.5-.27.63-.1092 1.242-.3044 1.82-.58h.08v-4.84l-.24.16c-.367.2347-.769.4102-1.19.52-.38.117-.773.1843-1.17.2-.46.0387-.924-.0235-1.357-.1824-.434-.159-.827-.4107-1.153-.7376-.624-.937-.906-2.0596-.8-3.18v-11.7h5.9z"/><path d="m27.6812 0h-27.39995v27.4h27.39995z"/><path d="m57.9312 0h-27.4v27.4h27.4z"/><path d="m27.6812 30.2598h-27.39995v27.4h27.39995z"/><path d="m57.9312 30.2598h-27.4v27.4h27.4z"/></g></svg>