<svg fill="none" height="71" viewBox="0 0 311 71" width="311" xmlns="http://www.w3.org/2000/svg"><g fill="#000"><path d="m99.1513 61.6304c-2.4475 2.9056-5.5136 5.2272-8.9741 6.7948s-7.2277 2.3416-11.0259 2.2652c-13.8 0-24.6201-10.32-24.6201-25.63 0-14.06 9.5701-25.62 23.4701-25.62 13.14 0 22.8097 10.32 22.8097 24 .007.7247-.026 1.4491-.1 2.17h-39.9997c.42 10.39 7.17 19.25 18.5 19.25 3.0026.0668 5.9805-.5566 8.7043-1.8222 2.7237-1.2657 5.1205-3.1397 7.0056-5.4778zm-38.15-21.63h33.47c-1.31-8.61-8-14.75-16.47-14.75-8.76.03-15.21 6.27-17 14.75z"/><path d="m126.54 47.3302-16 22.26h-7.2l18.92-26.39-16.26-22.71h7.2l13.34 18.63 13.34-18.63h7.2l-16.26 22.71 18.93 26.39h-7.2z"/><path d="m188.83 26.34h-16.66v26.89c0 4.43.86 6.55 2.17 8.16 1.71 2.17 4.53 3.42 8.16 3.42 1.785.0311 3.566-.1877 5.29-.65l1.06 5.59c-2.064.5771-4.197.8665-6.34.86-4.53 0-9.77-1.41-13.14-5.59-2.17-2.67-3.32-6.24-3.32-12v-26.73h-13.8v-5.8h13.75v-20.49h6.14v20.49h16.67v5.84z"/><path d="m258.828 20.54h6.17v49h-6.14v-49z"/><path d="m310.442 26.34h-16.67v26.89c0 4.43.86 6.55 2.17 8.16 1.71 2.17 4.53 3.42 8.16 3.42 1.785.0311 3.565-.1877 5.29-.65l1.06 5.59c-2.064.5771-4.198.8665-6.34.86-4.53 0-9.77-1.41-13.14-5.59-2.17-2.67-3.32-6.24-3.32-12v-26.73h-13.8v-5.8h13.8v-20.49h6.14v20.49h16.67v5.84z"/><path d="m222.47 19.44c-3.706.0044-7.367.8112-10.731 2.3648-3.365 1.5536-6.353 3.8172-8.759 6.6352v-28.44h-6.14v46h.05c.186 5.0218 1.846 9.8778 4.772 13.9631 2.927 4.0853 6.99 7.2195 11.685 9.0121 4.694 1.7926 9.813 2.1644 14.717 1.0691 4.905-1.0953 9.378-3.6093 12.864-7.2288s5.83-8.1847 6.741-13.1268c.91-4.9421.346-10.0428-1.622-14.6668s-5.252-8.5669-9.445-11.3376c-4.192-2.7707-9.107-4.2467-14.132-4.2443zm0 45c-3.825 0-7.564-1.1343-10.745-3.2594-3.18-2.1251-5.659-5.1456-7.123-8.6795s-1.847-7.4226-1.101-11.1741c.747-3.7516 2.589-7.1977 5.293-9.9024 2.705-2.7048 6.151-4.5467 9.903-5.293 3.751-.7462 7.64-.3632 11.174 1.1006s6.554 3.9426 8.679 7.1231c2.126 3.1804 3.26 6.9196 3.26 10.7447-.011 5.1224-2.053 10.0313-5.679 13.6496s-8.539 5.6504-13.661 5.6504z"/><path d="m5.94 27.4902c4-5.29 10.62-8 17.62-8 7.2 0 13.7 2.92 17.73 8.26 2.72 3.52 4.28 7.6 4.28 15.66v26.13h-6.24v-25.68c0-6.45-1.11-9.57-2.82-12-1.4668-2.0708-3.4188-3.7506-5.685-4.8925-2.2663-1.1418-4.7779-1.7109-7.315-1.6575-7.2 0-13.44 3.78-17.27 10.22v34h-6.24v-49h6v6.95h-.06z"/></g></svg>