<svg fill="none" height="42" viewBox="0 0 117 42" width="117" xmlns="http://www.w3.org/2000/svg"><path d="m15.3704 1.86033c-7.57 8.87997-14.830002 19.89997-14.900002 28.13997-.077411 1.4769.182171 2.9521.759092 4.3138.57693 1.3618 1.45608 2.5744 2.57091 3.5462 3.01847 2.6406 6.9101 4.0661 10.92 4 5.47 0 10.91-2.2 15.16-3.9 7.18-2.88 86.3896-37.269971 86.3896-37.269971.76-.38.62-.86-.33-.62l-86.2396 23.359971c-1.627.4622-3.3087.7044-5 .72-6.6 0-12.47-3.62-12.42-11.34.186-3.83712 1.2426-7.58165 3.09-10.94997" fill="#231f20"/></svg>