<svg fill="none" height="50" viewBox="0 0 230 50" width="230" xmlns="http://www.w3.org/2000/svg"><path d="m115.77 1.00035-14.6 18.00005-14.59-18.00005h-9.58l19.3 23.86005-19.16 23.87h9.58l14.43-17.81 14.43 17.81h9.72l-19.3-23.87 19.43-23.86005zm-58.07 47.73005h7.81v-47.73005h-7.81zm-22.7-13.1101-27.94-34.47995h-7.06v47.72995h7.81v-34.6199l28 34.6199h7.06v-47.86995h-7.87zm187.08 0-28-34.47995h-7.06v47.72995h7.81v-34.6199l28 34.6199h7.06v-47.86995h-7.81zm-69.08-34.759948c-4.781.003959-9.453 1.425628-13.426 4.085188-3.973 2.65957-7.067 6.43756-8.893 10.85616-1.825 4.4186-2.299 9.2793-1.362 13.9673s3.244 8.9927 6.628 12.3698c3.384 3.377 7.693 5.6746 12.383 6.6022s9.55.4435 13.965-1.391c4.415-1.8346 8.186-4.9372 10.838-8.9154 2.651-3.9783 4.063-8.6535 4.057-13.4342-.039-6.3988-2.602-12.5236-7.132-17.04364-4.529-4.52003-10.659-7.070186-17.058-7.096408zm0 40.360048c-3.236 0-6.399-.9595-9.089-2.7572-2.691-1.7977-4.787-4.3527-6.026-7.3421-1.238-2.9894-1.562-6.2789-.931-9.4524.632-3.1736 2.19-6.0886 4.478-8.3766s5.203-3.84614 8.376-4.4774c3.174-.63125 6.463-.30727 9.453.93098 2.989 1.23822 5.544 3.33512 7.342 6.02552s2.757 5.8534 2.757 9.0892c-.013 4.3348-1.741 8.4884-4.806 11.5537-3.066 3.0652-7.219 4.7931-11.554 4.8063z" fill="#000"/></svg>