<svg fill="none" height="71" viewBox="0 0 135 71" width="135" xmlns="http://www.w3.org/2000/svg"><g fill="#000"><path d="m135 70.982h-127.47957c-4.37619 0-7.4652679-3.656-7.52043-7.1475v-28.4073c5.47943 0 10.4072-2.6141 12.1908-3.8937 11.3634-8.0798 20.8145-23.81899 32.9134-28.93743 3.5488-1.49897 10.444-3.93023 19.1228-1.681772l10.3889 10.291702s-5.4243-2.54093-13.4779-2.54093c-9.0282 0-26.4594 7.40343-26.4594 26.74383 0 15.5747 10.7933 26.5245 28.5188 26.5245h62.6826z"/><path d="m62.2036 35.8836c-.662.6398-.3126 1.3893.5516 1.371h7.1895l5.0565-4.2593c1.0665-1.0419 2.0778-.8409 2.0778.2742v8.482c-.0184 1.3527 1.1768 1.3527 1.8939.4387l5.2587-4.9356h6.8953c.5516-.0183.9378-.7129.2023-1.4258l-12.4483-12.1746c-.8826-.8957-2.8132-.8957-3.6591 0-.2942.2925-13.0182 12.2294-13.0182 12.2294zm58.0854 20.5468h-58.4348c-6.6194 0-15.4821-3.1441-18.1667-9.268 0 0 26.2755-26.6524 27.5443-27.9137 3.1442-3.1076 8.7524-3.1076 11.4737 0z"/></g></svg>