<svg fill="none" height="50" viewBox="0 0 291 50" width="291" xmlns="http://www.w3.org/2000/svg"><g clip-rule="evenodd" fill="#000" fill-rule="evenodd"><path d="m18.6676 43.3762c-1.0358-.0144-2.0376-.1593-2.9905-.4217 5.1881-1.2873 9.0686-6.0149 9.1437-11.6939.0205-1.6866 1.3798-3.0352 3.0372-3.0107 1.6532.0231 2.9764 1.4062 2.9545 3.0885-.0906 6.7415-5.5266 12.1272-12.1449 12.0378zm-8.86614-9.2714c-1.6567-.0252-2.98064-1.4048-2.95799-3.09.08921-6.7407 5.52513-12.1285 12.14483-12.037 1.0337.0115 2.0369.1607 2.992.4238-5.1903 1.2837-9.0693 6.007-9.1451 11.6932-.0212 1.6852-1.3806 3.0331-3.03374 3.01zm25.77014-10.8816c-2.0723-5.4066-16.7454-23.062067-16.7454-23.062067s-14.67522 17.655467-16.74538 23.062067c-1.11084 2.416-1.733164 5.111-1.733164 7.9509 0 10.3915 8.272874 18.8109 18.478544 18.8109 10.205 0 18.4772-8.4194 18.4772-18.8109 0-2.8399-.6224-5.5349-1.7318-7.9509z"/><path d="m49.1299 32.0813.7031.6415c2.4673 2.2192 5.5704 4.0298 9.1847 4.0298 1.5505 0 4.1184-.6422 4.4264-2.6279.3087-1.9858-1.7282-2.1609-3.1187-2.4536l-3.0656-.5845c-5.9669-1.11-10.5576-4.7896-9.485-11.6846 1.6256-10.45415 11.8907-16.29751 21.2985-16.29751 4.934 0 9.2761 1.22677 13.1148 3.85473l-6.0009 11.27518c-2.4064-1.869-5.2207-3.3293-8.6049-3.3293-1.3785 0-3.467.5247-3.7488 2.3368-.2542 1.6354 1.6595 1.8689 2.8192 2.1601l3.4309.8188c6.418 1.5202 10.6751 5.1428 9.5112 12.6187-1.6341 10.5148-11.8525 15.7137-21.2079 15.7137-5.4494 0-11.5261-1.5179-16.0119-4.0298z"/><path d="m99.3019 16.833-2.4907 16.0064c-.2804 1.8091-.4645 3.7379 1.9448 3.7379 2.408 0 2.825-1.9288 3.105-3.7379l2.49-16.0064h14.692l-2.728 17.5243c-1.527 9.8149-10.587 14.1958-19.421 14.1958-8.8385 0-16.5358-4.3809-15.008-14.1958l2.7286-17.5243z"/><path d="m145.854 31.437c-1.403-.9349-2.374-1.6931-4.27-1.6931-3.842 0-6.155 2.3375-6.757 6.1929l-1.854 11.9174h-14.805l4.828-31.0209h14.802l-.987 4.1481h.342c3.276-4.0905 6.11-4.9662 11.085-4.8494z"/><path d="m155.259 14.0878c1.409-9.05446 6.206-14.07901094 15.388-14.07901094 2.178 0 4.251.35101994 6.376.70131794l-1.864 11.976493c-.702-.2912-1.239-.5269-1.927-.5269-2.526 0-3.425 2.1039-3.745 4.1481l-.18 1.1684 5.09-.6423-1.881 12.0911-4.697-.4072-3.01 19.337h-14.801l3.006-19.337-4.08.4072 1.881-12.0911 3.936.5269z"/><path d="m181.016.475586h14.803l-7.37 47.378314h-14.804z"/><path d="m198.841 16.8339h14.806l-4.827 31.0209h-14.804zm17.04-9.58056c-.79 5.08296-5.037 7.30296-9.282 7.30296-4.247 0-7.804-2.22-7.013-7.30296.7-4.4991 4.628-7.24455094 9.274-7.24455094 4.649 0 7.721 2.74545094 7.021 7.24455094z"/><path d="m231.865 21.7996h.345c3.394-3.3877 5.928-5.6668 10.692-5.6668 7.576 0 9.66 5.7835 8.597 12.618l-2.971 19.1042h-14.807l2.354-15.1313c.283-1.8113.683-4.3816-1.841-4.3816-2.469 0-2.868 2.5703-3.151 4.3816l-2.351 15.1313h-14.806l4.825-31.0209h14.46z"/><path d="m269.393 28.4596c.336-2.1616 1.716-4.0313 3.956-4.0313 2.123 0 3.314 1.928 2.986 4.0313zm20.518 6.4243c2.554-11.624-4.887-18.7511-15.732-18.7511-9.698 0-18.502 6.4265-20.1 16.7077-1.662 10.6906 6.333 15.7137 15.916 15.7137 7.002 0 15.743-3.4468 18.857-10.9249h-14.402c-.514 1.4611-1.835 2.5711-3.383 2.5711-3.1 0-3.065-2.8039-2.673-5.3165z"/></g></svg>