<svg fill="none" height="186" viewBox="0 0 359 186" width="359" xmlns="http://www.w3.org/2000/svg"><g fill="#000"><path d="m141.205 12.1676h-14.594v38.6569h-13.946v-38.6569h-14.665v-12.1676h43.204v12.1676z"/><path d="m204.851 0v50.8245h-13.947v-19.9025h-17.023v19.9025h-13.947v-50.8245h13.947v18.7521h17.023v-18.7521z"/><path d="m260.198 38.6585v12.166h-36.198v-50.8245h35.554v12.1676h-21.606v7.1589h18.458v11.3137h-18.458v8.0191h22.25z"/><path d="m34.191 83.038c-1.4311-.8601-2.9108-1.6237-4.4353-2.2931-1.2884-.5722-2.7303-1.108-4.3288-1.6083-1.5978-.5034-3.157-.7536-4.6845-.7536-1.2421 0-2.2312.1892-2.9695.5698-.7391.3853-1.1094 1.0277-1.1094 1.9318 0 .6733.2152 1.2215.6465 1.6485.4289.4269 1.0469.8261 1.8601 1.1805.8092.3583 1.7998.7057 2.9679 1.0393 1.168.3351 2.4919.7381 3.9701 1.2129 2.3353.7173 4.4453 1.5072 6.3301 2.365 1.884.8586 3.4948 1.8739 4.828 3.0421 1.3347 1.169 2.3615 2.5912 3.0759 4.2597.7167 1.67 1.0755 3.7015 1.0755 6.0874 0 3.054-.5632 5.621-1.6834 7.701-1.1218 2.071-2.5992 3.731-4.4353 4.972-1.8362 1.233-3.9092 2.132-6.2229 2.684-2.3137.548-4.6382.822-6.9743.822-1.86 0-3.7672-.145-5.7221-.427-1.955-.286-3.8976-.693-5.8302-1.217-1.9326-.531-3.79112-1.148-5.58253-1.862-1.78601-.717-3.44317-1.531-4.96687-2.433l6.00761-12.2422c1.6672 1.0472 3.40846 1.9752 5.22299 2.7882 1.5245.717 3.2534 1.363 5.1845 1.934 1.9325.572 3.8998.862 5.9003.862 1.5268 0 2.5876-.209 3.1848-.612.5955-.403.8941-.943.8941-1.608 0-.721-.2978-1.326-.8941-1.825-.598-.499-1.4188-.943-2.4704-1.3261-1.0469-.383-2.2512-.7613-3.6098-1.1458-1.3609-.383-2.802-.8347-4.3288-1.3628-2.2428-.759-4.173-1.5797-5.79394-2.4661-1.62322-.8848-2.95559-1.8855-4.00636-3.0058-1.04846-1.1249-1.82381-2.402-2.32374-3.8319-.49915-1.4346-.75298-3.0784-.75298-4.9384 0-2.8182.5115-5.3005 1.5399-7.4446 1.02455-2.1503 2.41786-3.9393 4.18381-5.3716 1.76363-1.4307 3.77881-2.5163 6.04391-3.2559 2.2666-.7413 4.6606-1.108 7.1887-1.108 1.8586 0 3.6723.1768 5.4383.5335 1.7613.3606 3.4686.8123 5.1119 1.3605 1.6464.552 3.1847 1.1465 4.6135 1.7889 1.4335.6486 2.718 1.2555 3.866 1.8299z"/><path d="m61 117.256 18.9556-50.8312h11.3016l18.8848 50.8312h-14.7373l-3.0759-9.954h-13.5173l-3.0066 9.954zm24.606-36.3002-4.7215 17.0419h9.227z"/><path d="m129 91.4119c0-3.1008.547-6.1553 1.643-9.1595 1.097-3.012 2.705-5.7082 4.828-8.094 2.121-2.3835 4.699-4.3153 7.727-5.8008 3.028-1.477 6.473-2.2121 10.335-2.2121 4.53 0 8.488 1.013 11.875 3.0406 3.386 2.0267 5.888 4.709 7.511 8.0515l-10.661 7.5905c-.426-1.2408-.99-2.2684-1.678-3.0807-.693-.8099-1.442-1.4546-2.255-1.9326-.809-.4756-1.667-.8099-2.575-1.0037-.904-.1892-1.741-.2818-2.503-.2818-1.763 0-3.278.3907-4.542 1.1767-1.264.7891-2.311 1.8175-3.146 3.0784-.834 1.2654-1.444 2.7-1.827 4.2975-.382 1.5998-.571 3.1842-.571 4.7592 0 1.7674.225 3.4637.68 5.0828.451 1.623 1.12 3.0568 2.004 4.2941.882 1.241 1.955 2.233 3.218 2.974 1.26.738 2.704 1.112 4.325 1.112.813 0 1.646-.112 2.505-.326.861-.218 1.682-.568 2.468-1.072.788-.503 1.503-1.149 2.145-1.935.644-.786 1.156-1.753 1.539-2.8968l11.374 6.8018c-.716 1.854-1.802 3.531-3.253 5.009-1.457 1.479-3.114 2.72-4.973 3.719-1.86 1.004-3.84 1.773-5.939 2.297-2.098.525-4.147.782-6.149.782-3.531 0-6.774-.749-9.731-2.256-2.956-1.499-5.496-3.49-7.616-5.972-2.124-2.482-3.779-5.303-4.973-8.454-1.189-3.1452-1.785-6.3409-1.785-9.5891z"/><path d="m193 117.257v-50.8312h23.321c2.481 0 4.768.5142 6.869 1.5419 2.094 1.0292 3.898 2.3649 5.396 4.0134 1.506 1.6438 2.682 3.5277 3.543 5.6541.857 2.1194 1.289 4.2551 1.289 6.4069 0 2.9556-.644 5.7144-1.933 8.2654-1.289 2.558-3.076 4.6419-5.363 6.2656l11.443 18.6839h-15.735l-9.656-15.603h-5.226v15.603zm13.948-27.7769h8.802c.861 0 1.655-.4734 2.395-1.4323.737-.9551 1.107-2.2924 1.107-4.0057 0-1.7673-.426-3.1154-1.288-4.0481-.857-.9289-1.715-1.3944-2.577-1.3944h-8.439z"/><path d="m293.19 105.087v12.17h-36.19v-50.8312h35.546v12.1745h-21.598v7.1551h18.457v11.3129h-18.457v8.0197h22.242z"/><path d="m313 117.257v-50.8312h19.528c4.192 0 7.892.6709 11.081 2.0075 3.197 1.3357 5.87 3.1509 8.013 5.4402 2.15 2.2908 3.769 4.9762 4.864 8.0531 1.099 3.0783 1.647 6.3629 1.647 9.8427 0 3.8667-.608 7.3667-1.824 10.4897-1.216 3.127-2.947 5.803-5.186 8.019s-4.936 3.933-8.077 5.15c-3.149 1.217-6.661 1.83-10.518 1.83h-19.528zm30.972-25.4884c0-1.9504-.266-3.7455-.789-5.3677-.524-1.6245-1.276-3.0081-2.255-4.1485-.974-1.1489-2.178-2.043-3.612-2.6862-1.43-.647-3.027-.9666-4.787-.9666h-5.581v26.4874h5.581c1.812 0 3.43-.335 4.864-1.003 1.426-.665 2.633-1.6 3.608-2.789.982-1.197 1.715-2.603 2.223-4.2275.498-1.6214.748-3.3864.748-5.2989z"/><path d="m113 185.184v-50.827h34.836v12.166h-20.886v8.455h17.022v11.307h-17.022v18.9h-13.95z"/><path d="m166.859 185.184v-50.827h13.952v50.827z"/><path d="m234.194 181.03c-3.193 3.011-6.89 4.518-11.086 4.518-3.148 0-6.128-.709-8.942-2.119-2.814-1.403-5.283-3.304-7.406-5.69-2.121-2.386-3.801-5.166-5.041-8.342-1.239-3.168-1.86-6.52-1.86-10.058 0-3.578.632-6.902 1.893-9.986 1.264-3.078 3.007-5.746 5.226-8.019 2.214-2.265 4.824-4.054 7.827-5.367 3.009-1.306 6.226-1.967 9.66-1.967 2.146 0 4.196.249 6.153.75 1.953.503 3.765 1.24 5.44 2.22 1.667.979 3.157 2.148 4.469 3.51 1.309 1.362 2.392 2.897 3.254 4.617l-10.372 7.947c-.861-2.007-2.158-3.619-3.898-4.836-1.744-1.217-3.591-1.825-5.548-1.825-1.426 0-2.75.335-3.967 1.004-1.22.668-2.267 1.6-3.148 2.792-.882 1.189-1.575 2.616-2.074 4.26s-.749 3.449-.749 5.399c0 2.008.249 3.829.749 5.449.498 1.62 1.2 3.014 2.109 4.183.902 1.176 1.989 2.079 3.254 2.724 1.264.641 2.657.967 4.187.967 1.716 0 3.375-.431 4.969-1.289 1.594-.863 3.084-2.104 4.47-3.724h-8.94v-10.027h20.89v27.064h-11.52v-4.155z"/></g></svg>