<svg fill="none" height="119" viewBox="0 0 131 119" width="131" xmlns="http://www.w3.org/2000/svg"><path d="m130.692 30.72-10-4-.28-4.55-9.31-4.29-.21-5.63s-30.9803-12.25-45.2703-12.25c-12.91 0-42.15 11.39-43.88 12l-.21 5.2-8.88 3.85-.28 5-11.36996 4.67s-3.45 58.28 64.79996 88.28c67.6003-27.85 64.8903-88.31 64.8903-88.31zm-6.15 4.48c0 .13-.51 13.38-8 29.33-4.334 9.3211-10.233 17.8308-17.4403 25.16-9.4619 9.4473-20.7153 16.91-33.1 21.95l-.13.05-.13-.06c-13.61-6.45-25.1-14.49-34.17-23.91-7.0804-7.2788-12.8337-15.7395-17-25-2.8429-6.2961-4.82729-12.9456-5.89996-19.77-.42892-2.6447-.63298-5.3209-.61-8v-.26l10.69996-3.9.33-5.61 9.3-3.39.28-5.89.2-.08c.25-.09 24.66-9.19 37-9.19s38.0003 10 38.2403 10.12l.2.08.26 5.64 8.71 3.38.34 5 11 4.15v.2zm-23.09 4.3c-.45-9.38-10.9203-15.57-10.9203-15.57-6.9307-4.1249-14.5723-6.9163-22.53-8.23l.1 87.62c11.74-7.32 21.25-14.79 27.18-22.89 4.58-6.26 7.2403-10.51 5.4703-18.38-1.5203-6.83-9.6503-8.59-9.6503-8.59 2.42-1.5 10.6803-6.73 10.3503-13.95zm-7.5103 26.19c-.06 4.81-3.1 10.18-9 16-2.7702 2.6464-5.761 5.0518-8.94 7.19l-.46.3v-23.82l.09-.09c.3-.29 7.46-7 12.69-7 .2432-.0144.4869-.0144.73 0 4.9.66 4.89 7.34 4.89 7.41zm-2.34-21.33c-2.84 3.64-8.27 6.2-16.14 7.54l-.35.1-.11-27.08.43.08c3.0453.9574 5.9974 2.1891 8.82 3.68 6 3.2 9.07 6.71 9.26 10.44.0223 1.9149-.6571 3.7717-1.91 5.22zm-27.6-29.16c-2.6929.1955-5.3368.8236-7.83 1.86l-.17.08v59.25c-8.41-14.94-9.86-51.57-9.87-51.95v-.35l-.34.05c-2.7146.406-5.3906 1.0382-8 1.89l-.18.06v.19c-1.61 11.9 5.28 37.29 5.81 39.24l-2.24 4.48c-9.85-14.41-12.61-35.06-12.64-35.27v-.28h-.32c-2.6445.2822-5.2481.866-7.76 1.74l-.22.08v.23c.3 6.15 2.81 15.76 6.56 25.1 2.45 6.1 7.48 17.11 13.66 22.3l.24.2 6-7.42c8 21.05 17.1 27.63 17.19 27.7l.49.34v-89.55z" fill="#000"/></svg>